<svg width="192" height="192" viewBox="0 0 192 192" fill="none" xmlns="http://www.w3.org/2000/svg">
  <!-- Background Circle -->
  <circle cx="96" cy="96" r="96" fill="#2563eb"/>
  
  <!-- Airplane Icon -->
  <g transform="translate(48, 48)">
    <!-- Main body -->
    <path d="M48 20L72 44L88 40L80 24L48 20Z" fill="white"/>
    <path d="M48 20L24 44L8 40L16 24L48 20Z" fill="white"/>
    
    <!-- Wings -->
    <path d="M20 48L48 48L52 52L48 56L20 56L16 52L20 48Z" fill="white"/>
    <path d="M76 48L48 48L44 52L48 56L76 56L80 52L76 48Z" fill="white"/>
    
    <!-- Tail -->
    <path d="M48 72L56 80L48 88L40 80L48 72Z" fill="white"/>
    
    <!-- Fuselage -->
    <rect x="44" y="20" width="8" height="68" rx="4" fill="white"/>
    
    <!-- Windows -->
    <circle cx="48" cy="32" r="2" fill="#2563eb"/>
    <circle cx="48" cy="40" r="2" fill="#2563eb"/>
    <circle cx="48" cy="48" r="2" fill="#2563eb"/>
    <circle cx="48" cy="56" r="2" fill="#2563eb"/>
    <circle cx="48" cy="64" r="2" fill="#2563eb"/>
  </g>
  
  <!-- Dollar Sign Overlay -->
  <g transform="translate(120, 120)">
    <circle cx="24" cy="24" r="24" fill="#10b981"/>
    <path d="M24 8V16M24 32V40M18 16C18 13.79 19.79 12 22 12H26C28.21 12 30 13.79 30 16C30 18.21 28.21 20 26 20H22C19.79 20 18 21.79 18 24C18 26.21 19.79 28 22 28H26C28.21 28 30 29.79 30 32C30 34.21 28.21 36 26 36H22C19.79 36 18 34.21 18 32" stroke="white" stroke-width="2" stroke-linecap="round" stroke-linejoin="round" fill="none"/>
  </g>
</svg>